<?xml version="1.0" standalone="no"?>
<!DOCTYPE svg PUBLIC "-//W3C//DTD SVG 20010904//EN"
 "http://www.w3.org/TR/2001/REC-SVG-20010904/DTD/svg10.dtd">
<svg version="1.0" xmlns="http://www.w3.org/2000/svg"
 width="1080.000000pt" height="1080.000000pt" viewBox="0 0 1080.000000 1080.000000"
 preserveAspectRatio="xMidYMid meet">

<g transform="translate(0.000000,1080.000000) scale(0.100000,-0.100000)"
fill="#000000" stroke="none">
<path d="M0 5400 l0 -5400 5400 0 5400 0 0 5400 0 5400 -5400 0 -5400 0 0
-5400z m6440 5350 c47 -5 135 -21 197 -36 94 -22 130 -36 225 -90 135 -77 146
-87 259 -237 100 -132 124 -175 165 -297 28 -84 28 -88 29 -320 0 -228 -1
-240 -33 -395 -18 -88 -39 -180 -47 -205 -7 -25 -28 -97 -45 -160 -44 -159
-188 -597 -250 -760 -29 -74 -60 -160 -70 -190 -20 -62 -123 -332 -164 -430
-15 -36 -62 -157 -106 -270 -69 -181 -153 -394 -302 -765 -24 -60 -57 -144
-73 -185 -30 -82 -134 -338 -197 -490 -22 -52 -62 -153 -88 -225 -26 -71 -78
-200 -115 -285 -37 -85 -76 -177 -85 -205 -24 -67 -232 -562 -368 -871 -140
-321 -136 -306 -81 -264 24 19 71 58 104 86 33 29 101 83 151 120 182 138 382
290 484 368 219 168 447 290 654 352 65 20 109 25 231 28 82 2 173 0 200 -5
63 -10 293 -127 379 -191 76 -57 112 -109 189 -273 85 -180 92 -214 92 -450 0
-125 -5 -226 -13 -270 -57 -302 -75 -375 -162 -668 -34 -115 -60 -210 -58
-212 7 -6 138 16 233 40 182 45 586 194 795 292 181 85 233 98 380 97 105 -1
137 -5 202 -26 122 -40 203 -91 298 -187 128 -129 191 -267 206 -450 17 -214
-89 -466 -249 -593 -61 -47 -191 -114 -377 -192 -74 -32 -160 -68 -192 -82
-60 -26 -155 -59 -438 -154 -218 -72 -254 -82 -415 -114 -358 -70 -720 -92
-1066 -66 -298 23 -404 54 -586 176 -180 120 -177 117 -290 319 -61 109 -68
129 -89 270 -20 134 -13 295 16 404 22 83 24 101 11 101 -12 0 -153 -118 -405
-340 -65 -58 -158 -138 -205 -179 -163 -140 -627 -575 -1031 -967 -452 -438
-557 -531 -646 -574 -140 -68 -409 -100 -544 -66 -135 34 -264 117 -360 231
-54 65 -134 229 -161 330 -30 110 -30 282 -1 375 59 186 201 529 413 996 32
72 59 134 59 137 0 3 20 48 44 99 24 51 80 172 124 268 44 96 103 225 132 285
63 134 127 278 223 505 24 58 89 206 145 330 55 124 144 329 197 455 54 127
120 280 148 340 61 135 123 281 282 670 68 165 141 345 164 400 23 55 70 172
104 260 35 88 85 210 111 270 26 61 63 151 81 200 19 50 49 131 68 180 39 101
202 512 247 620 16 39 53 133 83 210 29 77 99 257 155 400 177 453 349 941
337 954 -20 20 -700 -266 -965 -406 -69 -37 -154 -82 -190 -101 -93 -48 -235
-133 -380 -225 -69 -44 -170 -107 -225 -140 -286 -172 -813 -555 -1050 -762
-304 -267 -374 -334 -538 -519 -224 -253 -264 -312 -312 -461 -101 -309 -394
-510 -719 -492 -239 13 -455 143 -575 345 -61 102 -80 172 -87 321 -8 144 4
214 61 381 69 202 238 471 445 709 41 48 97 113 125 146 141 169 456 467 795
751 212 178 805 608 996 722 27 16 126 78 219 137 228 145 329 206 464 282
184 104 526 278 661 336 69 30 172 76 230 102 285 127 826 321 1020 365 52 12
131 30 175 40 72 17 232 35 370 43 28 2 59 4 70 5 11 1 58 -3 105 -8z"/>
</g>
</svg>
